<?xml version="1.0" encoding="UTF-8"?>
<svg width="651px" height="78px" viewBox="0 0 651 78" version="1.1" xmlns="http://www.w3.org/2000/svg" xmlns:xlink="http://www.w3.org/1999/xlink">
    <title>logo copy</title>
    <defs>
        <polygon id="path-1" points="0 0 56.8049622 0 56.8049622 77.9998128 0 77.9998128"></polygon>
    </defs>
    <g id="insurmedix-Brand-Guidelines" stroke="none" stroke-width="1" fill="none" fill-rule="evenodd">
        <g id="11-|-Logotype-–-Primary-Logotype" transform="translate(-1093.000000, -267.000000)">
            <g id="logo-copy" transform="translate(1093.000000, 267.000000)">
                <polygon id="Fill-1" fill="#FF8C19" points="420.43762 14.3334243 471.118556 14.3334243 471.118556 1.43334243 420.43762 1.43334243"></polygon>
                <polygon id="Fill-2" fill="#FF8C19" points="420.43762 45.8669576 471.118556 45.8669576 471.118556 32.9668758 420.43762 32.9668758"></polygon>
                <polygon id="Fill-3" fill="#FF8C19" points="420.43762 77.400491 471.118556 77.400491 471.118556 64.5004092 420.43762 64.5004092"></polygon>
                <polygon id="Fill-4" fill="#1C1C1B" points="0 77.400491 12.8486879 77.400491 12.8486879 1.43334243 0 1.43334243"></polygon>
                <polygon id="Fill-5" fill="#1C1C1B" points="91.3684472 77.400491 78.7583151 77.400491 45.0963174 21.9390408 44.783383 22.0431735 44.783383 77.400491 32.1217197 77.400491 32.1217197 1.43334243 44.783383 1.43334243 78.4453807 56.8441335 78.7583151 56.7390627 78.7583151 1.43334243 91.3684472 1.43334243"></polygon>
                <g id="Group-57" transform="translate(107.382138, 0.000000)">
                    <g id="Group-8">
                        <mask id="mask-2" fill="white">
                            <use xlink:href="#path-1"></use>
                        </mask>
                        <g id="Clip-7"></g>
                        <path d="M44.2003737,57.3745764 C44.2003737,54.2297662 43.0336448,51.6551226 40.6992545,49.6506455 C38.3648642,47.6452321 34.2416762,45.8485989 28.3287578,44.2588735 C19.8902585,42.0371901 13.3981726,39.0955427 8.85156744,35.432995 C4.3040296,31.7713836 2.03119332,26.9713116 2.03119332,21.0355877 C2.03119332,14.9266605 4.54651521,9.89346617 9.57809163,5.9360048 C14.6087354,1.97854344 21.1008213,-0.000655363841 29.0543494,-0.000655363841 C37.3538857,-0.000655363841 44.0185095,2.24817884 49.0500859,6.74210233 C54.0816623,11.2388345 56.510249,16.6277977 56.3377111,22.9099283 L56.2341884,23.2226305 L44.148146,23.2226305 C44.148146,19.3353866 42.8340605,16.184959 40.2068222,13.7722839 C37.5777186,11.3596087 33.8266527,10.1537392 28.9508267,10.1537392 C24.3519938,10.1537392 20.8154344,11.1583184 18.3439465,13.1665404 C15.8705932,15.176635 14.6348493,17.772812 14.6348493,20.9588165 C14.6348493,23.8349275 15.9741159,26.2251331 18.6545146,28.1294332 C21.3339806,30.0346695 25.7686693,31.8350476 31.9595135,33.5324399 C40.0846467,35.7194827 46.2577708,38.7397737 50.4760878,42.5923769 C54.6953374,46.4459163 56.8049622,51.3574002 56.8049622,57.3277647 C56.8049622,63.6464084 54.2887077,68.6711766 49.2571313,72.4020693 C44.2264875,76.1338983 37.6131588,77.9998128 29.4171451,77.9998128 C21.5335649,77.9998128 14.6171292,75.8904774 8.66970323,71.672743 C2.72227731,67.4559448 -0.16609937,61.7018503 0.00737110573,54.4123319 L0.111826446,54.0996297 L12.2491639,54.0996297 C12.2491639,58.7171361 13.8393099,62.1624774 17.0205346,64.4356537 C20.2017593,66.7097662 24.3342737,67.8463544 29.4171451,67.8463544 C34.0859258,67.8463544 37.7166815,66.9045029 40.3103449,65.0208 C42.9040083,63.1380333 44.2003737,60.588668 44.2003737,57.3745764" id="Fill-6" fill="#1C1C1B" mask="url(#mask-2)"></path>
                    </g>
                    <path d="M130.106031,1.09305326 L130.106031,51.9127742 C130.106031,60.3136024 127.374337,66.7614464 121.91095,71.2563061 C116.44663,75.752102 109.306361,78 100.489211,78 C91.8436667,78 84.8414283,75.7436759 79.4815637,71.2310278 C74.1216991,66.7183796 71.4422331,60.2789617 71.4422331,51.9127742 L71.4422331,1.09305326 L84.045889,1.09305326 L84.045889,51.8734524 C84.045889,57.1809632 85.5325123,61.1702566 88.5066916,63.8403961 C91.4808709,66.5114719 95.4744224,67.8465416 100.489211,67.8465416 C105.675605,67.8465416 109.807187,66.5114719 112.885822,63.8403961 C115.962591,61.1702566 117.501442,57.1809632 117.501442,51.8734524 L117.501442,1.09305326 L130.106031,1.09305326 Z" id="Fill-9" fill="#1C1C1B"></path>
                    <path d="M160.407965,35.3028585 L175.035443,35.3028585 C180.083807,35.3028585 183.765858,34.3319838 186.083461,32.3864894 C188.399199,30.4438038 189.558466,27.4759418 189.558466,23.4829035 C189.558466,19.664941 188.417851,16.6708645 186.134756,14.500674 C183.852593,12.3323559 180.377588,11.2472606 175.70974,11.2472606 L160.407965,11.2472606 L160.407965,35.3028585 Z M160.407965,45.4563169 L160.407965,76.9062914 L147.803377,76.9062914 L147.803377,1.09286602 L175.70974,1.09286602 C184.146374,1.09286602 190.664574,3.0027835 195.264339,6.82074599 C199.863172,10.6396447 202.163055,16.0894632 202.163055,23.1702014 C202.163055,27.0939583 201.151144,30.4690821 199.128254,33.2983814 C197.105365,36.1276807 194.157299,38.3933671 190.28499,40.0935682 C194.537815,41.4473626 197.597797,43.6596837 199.465869,46.7314677 C201.333008,49.8041878 202.266578,53.5790836 202.266578,58.0570911 L202.266578,64.3570101 C202.266578,66.5796297 202.542638,68.748884 203.096624,70.8657092 C203.648746,72.9834707 204.582315,74.5975382 205.897333,75.708848 L205.897333,76.9062914 L192.929949,76.9062914 C191.546848,75.7603409 190.65618,73.9562179 190.258877,71.4911136 C189.860641,69.0269455 189.661989,66.6142704 189.661989,64.2530881 L189.661989,58.1610131 C189.661989,54.2737692 188.554949,51.1841968 186.342734,48.8932321 C184.129587,46.6022674 181.086392,45.4563169 177.214083,45.4563169 L160.407965,45.4563169 Z" id="Fill-11" fill="#1C1C1B"></path>
                    <polygon id="Fill-13" fill="#1C1C1B" points="237.132931 1.09305326 258.86617 59.4110728 259.177671 59.4110728 280.963137 1.09305326 297.301072 1.09305326 297.301072 76.9064786 284.697416 76.9064786 284.697416 51.0795259 285.941554 18.2242641 285.630985 18.171835 263.222517 76.9064786 254.768163 76.9064786 232.46415 18.328186 232.153582 18.3796789 233.398652 51.0795259 233.398652 76.9064786 220.794064 76.9064786 220.794064 1.09305326"></polygon>
                    <path d="M393.332089,11.2468861 L393.332089,66.7524585 L404.847357,66.7524585 C411.105351,66.7524585 416.025011,64.7058509 419.603539,60.614508 C423.183,56.522229 424.97273,51.2334428 424.97273,44.7472132 L424.97273,33.1472732 C424.97273,26.7321974 423.183,21.4771157 419.603539,17.3857728 C416.025011,13.2925575 411.105351,11.2468861 404.847357,11.2468861 L393.332089,11.2468861 Z M380.7275,76.9059169 L380.7275,1.09342776 L405.210153,1.09342776 C414.788335,1.09342776 422.576786,4.09686662 428.577372,10.1009356 C434.576093,16.1078134 437.576386,23.8308081 437.576386,33.2717923 L437.576386,44.7790452 C437.576386,54.2565425 434.576093,61.9804735 428.577372,67.9499019 C422.576786,73.9212027 414.788335,76.9059169 405.210153,76.9059169 L380.7275,76.9059169 Z" id="Fill-15" fill="#1C1C1B"></path>
                    <polygon id="Fill-17" fill="#1C1C1B" points="453.925419 76.9060105 466.530008 76.9060105 466.530008 1.09258515 453.925419 1.09258515"></polygon>
                    <polygon id="Fill-19" fill="#1C1C1B" points="511.873698 29.1062998 527.797541 1.09324051 542.735587 1.09324051 519.498937 38.6877191 543.617862 76.9057296 528.471838 76.9057296 512.081676 48.4236171 495.690581 76.9057296 480.752535 76.9057296 504.508663 38.6877191 481.271081 1.09324051 496.105604 1.09324051"></polygon>
                </g>
            </g>
        </g>
    </g>
</svg>